<svg width="46" height="52" viewBox="0 0 46 52" fill="none" xmlns="http://www.w3.org/2000/svg">
<g filter="url(#filter0_d_400_356)">
<path d="M22.6846 31.4777L21.6586 41.181C21.4758 42.91 19.9176 44.1642 18.1783 43.9825C16.439 43.8008 15.1772 42.2519 15.36 40.5229L17.6477 18.8866H7.16667C5.41776 18.8866 4 17.4773 4 15.7388C4 14.0004 5.41776 12.5911 7.16667 12.5911H38.8333C40.5822 12.5911 42 14.0004 42 15.7388C42 17.4773 40.5822 18.8866 38.8333 18.8866H28.3523L30.64 40.5229C30.8228 42.2519 29.561 43.8008 27.8217 43.9825C26.0824 44.1642 24.5242 42.91 24.3414 41.181L23.3154 31.4777H22.6846ZM23 12.5911C19.5022 12.5911 16.6667 9.77246 16.6667 6.29553C16.6667 2.81861 19.5022 0 23 0C26.4978 0 29.3333 2.81861 29.3333 6.29553C29.3333 9.77246 26.4978 12.5911 23 12.5911Z" fill="#E50000"/>
</g>
<defs>
<filter id="filter0_d_400_356" x="0" y="0" width="46" height="52" filterUnits="userSpaceOnUse" color-interpolation-filters="sRGB">
<feFlood flood-opacity="0" result="BackgroundImageFix"/>
<feColorMatrix in="SourceAlpha" type="matrix" values="0 0 0 0 0 0 0 0 0 0 0 0 0 0 0 0 0 0 127 0" result="hardAlpha"/>
<feOffset dy="4"/>
<feGaussianBlur stdDeviation="2"/>
<feComposite in2="hardAlpha" operator="out"/>
<feColorMatrix type="matrix" values="0 0 0 0 0 0 0 0 0 0 0 0 0 0 0 0 0 0 0.25 0"/>
<feBlend mode="normal" in2="BackgroundImageFix" result="effect1_dropShadow_400_356"/>
<feBlend mode="normal" in="SourceGraphic" in2="effect1_dropShadow_400_356" result="shape"/>
</filter>
</defs>
</svg>
