<svg width="59" height="58" viewBox="0 0 59 58" fill="none" xmlns="http://www.w3.org/2000/svg">
<g clip-path="url(#clip0_400_275)">
<path d="M27.5906 8.06996C27.5906 8.50156 27.4192 8.91548 27.114 9.22067C26.8088 9.52585 26.3949 9.6973 25.9633 9.6973C25.5317 9.6973 25.1178 9.52585 24.8126 9.22067C24.5074 8.91548 24.3359 8.50156 24.3359 8.06996C24.3359 7.63837 24.5074 7.22445 24.8126 6.91926C25.1178 6.61408 25.5317 6.44263 25.9633 6.44263C26.3949 6.44263 26.8088 6.61408 27.114 6.91926C27.4192 7.22445 27.5906 7.63837 27.5906 8.06996Z" fill="#E50000"/>
<path d="M52.0294 0.716146C52.0285 0.716146 7.85443 0.701681 7.8689 0.716146C3.79784 0.716146 1.50781 2.82174 1.50781 7.12243V51.4583C1.50781 55.4815 3.5673 57.588 7.63384 57.588H52.1578C56.2261 57.588 58.2865 55.5854 58.2865 51.4583V7.12243C58.2865 2.92661 56.2252 0.716146 52.0294 0.716146ZM50.8243 15.7726L36.7758 13.649V12.4212H31.035L31.0268 14.4057C32.6026 14.7013 36.7397 17.2282 36.7397 22.1373V50.6646C36.7397 51.3725 36.4097 52.5514 34.9939 52.5514H22.429C21.0124 52.5514 20.6833 51.3725 20.6833 50.6646V22.1373C20.6833 17.2282 24.9722 14.7004 26.529 14.4057L26.5227 12.7431C22.7464 13.6869 21.4752 15.6569 20.3415 17.2616C19.2078 18.8664 17.0037 17.5211 17.8065 15.9164C18.3842 14.233 21.3107 11.4683 23.4931 10.6628C22.9417 10.3319 22.3188 9.36092 22.3188 8.27513C22.3188 5.98872 24.0763 4.47439 26.0164 4.47439C28.009 4.47439 29.4112 6.12976 29.4112 7.41987H31.063V9.49563H36.7758V8.17387L50.8243 6.13156V15.7735V15.7726Z" fill="#E50000"/>
</g>
<defs>
<clipPath id="clip0_400_275">
<rect width="57.8609" height="57.8609" fill="white" transform="translate(0.710938)"/>
</clipPath>
</defs>
</svg>
