<svg width="40" height="32" viewBox="0 0 40 32" fill="none" xmlns="http://www.w3.org/2000/svg">
<path fill-rule="evenodd" clip-rule="evenodd" d="M38 14.3002H2C0.896 14.3002 0 15.0618 0 16.0002C0 16.9403 0.896 17.7002 2 17.7002H38C39.104 17.7002 40 16.9403 40 16.0002C40 15.0618 39.104 14.3002 38 14.3002ZM38 27.9002H2C0.896 27.9002 0 28.6618 0 29.6002C0 30.5403 0.896 31.3002 2 31.3002H38C39.104 31.3002 40 30.5403 40 29.6002C40 28.6618 39.104 27.9002 38 27.9002ZM2 4.10019H38C39.104 4.10019 40 3.3403 40 2.4002C40 1.4618 39.104 0.700195 38 0.700195H2C0.896 0.700195 0 1.4618 0 2.4002C0 3.3403 0.896 4.10019 2 4.10019Z" fill="white"/>
</svg>
