<svg width="56" height="65" viewBox="0 0 56 65" fill="none" xmlns="http://www.w3.org/2000/svg">
<g filter="url(#filter0_d_188_518)">
<path fill-rule="evenodd" clip-rule="evenodd" d="M28 18.333C24.686 18.333 22 21.019 22 24.333C22 27.647 24.686 30.333 28 30.333C31.314 30.333 34 27.647 34 24.333C34 21.019 31.314 18.333 28 18.333ZM28 34.333C22.478 34.333 18 29.857 18 24.333C18 18.809 22.478 14.333 28 14.333C33.522 14.333 38 18.809 38 24.333C38 29.857 33.522 34.333 28 34.333ZM28 0.333008C14.746 0.333008 4 11.079 4 24.333C4 34.369 24.01 64.355 28 64.333C31.928 64.355 52 34.233 52 24.333C52 11.079 41.254 0.333008 28 0.333008Z" fill="white"/>
</g>
<defs>
<filter id="filter0_d_188_518" x="0" y="0.333008" width="56" height="72" filterUnits="userSpaceOnUse" color-interpolation-filters="sRGB">
<feFlood flood-opacity="0" result="BackgroundImageFix"/>
<feColorMatrix in="SourceAlpha" type="matrix" values="0 0 0 0 0 0 0 0 0 0 0 0 0 0 0 0 0 0 127 0" result="hardAlpha"/>
<feOffset dy="4"/>
<feGaussianBlur stdDeviation="2"/>
<feComposite in2="hardAlpha" operator="out"/>
<feColorMatrix type="matrix" values="0 0 0 0 0 0 0 0 0 0 0 0 0 0 0 0 0 0 0.25 0"/>
<feBlend mode="normal" in2="BackgroundImageFix" result="effect1_dropShadow_188_518"/>
<feBlend mode="normal" in="SourceGraphic" in2="effect1_dropShadow_188_518" result="shape"/>
</filter>
</defs>
</svg>
