<svg width="60" height="60" viewBox="0 0 60 60" fill="none" xmlns="http://www.w3.org/2000/svg">
<g clip-path="url(#clip0_188_523)">
<path d="M14.9335 30.2302C14.9335 30.2302 25.6304 19.5849 25.6304 10.6969C25.6304 4.78877 20.8417 0 14.9335 0C9.03116 0 4.24048 4.78877 4.24048 10.6969C4.24048 20.0891 14.9335 30.2302 14.9335 30.2302ZM9.36161 10.6988C9.36161 7.61962 11.8582 5.12496 14.9335 5.12496C18.0108 5.12496 20.5074 7.61962 20.5074 10.6988C20.5074 13.7761 18.0108 16.2726 14.9335 16.2726C11.8582 16.2726 9.36161 13.7761 9.36161 10.6988Z" fill="white"/>
<path d="M30.0027 1.979C28.1117 1.979 26.2684 2.17384 24.4786 2.52149C25.8768 4.15276 26.8663 6.14124 27.2865 8.33219C27.34 8.30163 27.3916 8.26534 27.447 8.2405V15.9556C27.1623 15.9308 26.8892 15.8735 26.6084 15.841C26.0067 17.669 25.1509 19.4627 24.1882 21.157C25.2579 21.3366 26.3372 21.497 27.447 21.5753V28.1864H19.2868L14.9354 32.1156L10.905 28.1864H6.28621C6.47723 26.6162 6.83825 25.0862 7.34062 23.6096C6.14295 21.8943 4.99304 19.9994 4.09908 17.9976C2.12971 21.9134 0.993164 26.3144 0.993164 30.9886C0.993164 46.9843 14.0071 60.0001 30.0027 60.0001C45.9984 60.0001 59.0085 46.9862 59.0085 30.9886C59.0085 14.9948 45.9965 1.979 30.0027 1.979ZM11.6786 45.97C8.68728 42.4667 6.83443 38.2892 6.28621 33.7965H13.4264C13.6174 37.3494 14.1408 40.7247 15.0023 43.8325C13.8275 44.4628 12.7139 45.1792 11.6786 45.97ZM15.8141 49.8017C16.1789 49.5706 16.5419 49.349 16.9105 49.1408C17.2295 49.8399 17.5619 50.5142 17.9134 51.1599C17.1875 50.7454 16.4846 50.2907 15.8141 49.8017ZM27.4489 53.7367C25.3171 52.6918 23.3439 50.3882 21.7604 47.1008C23.577 46.5526 25.4852 46.1877 27.4489 46.0215V53.7367ZM27.4489 40.4038C24.7842 40.5929 22.236 41.0723 19.8407 41.8249C19.153 39.3073 18.7156 36.6102 18.5361 33.7927H27.4489V40.4038ZM32.5547 8.24623C34.6807 9.28727 36.6539 11.5871 38.2374 14.8764C36.4209 15.4208 34.5222 15.7875 32.5547 15.9537V8.24623ZM32.5547 53.7367V46.0254C34.5317 46.1954 36.4381 46.5526 38.2432 47.0989C36.6596 50.392 34.6845 52.6956 32.5547 53.7367ZM40.161 41.8326C37.7675 41.0761 35.2117 40.5986 32.5547 40.4038V33.7965H41.4675C41.288 36.6102 40.8544 39.3073 40.161 41.8326ZM32.5547 28.1883V21.5772C35.2213 21.39 37.7675 20.9106 40.161 20.1561C40.8505 22.6775 41.288 25.3746 41.4675 28.1883H32.5547ZM42.0902 51.156C42.4341 50.5219 42.7664 49.8533 43.0854 49.1599C43.4732 49.372 43.8361 49.5897 44.178 49.8056C43.5114 50.2927 42.8142 50.7454 42.0902 51.156ZM43.0931 12.8383C42.7741 12.1391 42.4398 11.4649 42.0921 10.8249C42.8161 11.2395 43.5133 11.6903 44.1914 12.1773C43.8247 12.4085 43.4598 12.6281 43.0931 12.8383ZM48.3135 16.0072C51.3125 19.5085 53.1672 23.6899 53.7116 28.1883H46.5676C46.3843 24.6373 45.8513 21.264 44.9918 18.1428C46.1684 17.5105 47.2801 16.7942 48.3135 16.0072ZM48.3212 45.9604C47.3069 45.1811 46.1933 44.4648 44.9975 43.8268C45.859 40.7228 46.3862 37.3513 46.5676 33.7984H53.7116C53.1672 38.2816 51.3125 42.4629 48.3212 45.9604Z" fill="white"/>
</g>
<defs>
<clipPath id="clip0_188_523">
<rect width="60" height="60" fill="white"/>
</clipPath>
</defs>
</svg>
