<svg width="45" height="45" viewBox="0 0 45 45" fill="none" xmlns="http://www.w3.org/2000/svg">
<g clip-path="url(#clip0_400_350)">
<g filter="url(#filter0_d_400_350)">
<path d="M25.2851 26.2743L36.1258 15.4336C36.2312 15.3282 36.4017 15.3282 36.5071 15.4336L42.2567 21.1832C42.3622 21.2887 42.3622 21.4591 42.2567 21.5646L31.416 32.4053C30.9059 32.9154 30.2131 33.2023 29.4909 33.2023H25.984C25.1575 33.2023 24.488 32.5328 24.488 31.7063V28.1994C24.488 27.4772 24.775 26.7844 25.2851 26.2743ZM46.0518 14.3018L43.3885 11.6386C42.4308 10.6809 40.8785 10.6809 39.9208 11.6386L37.184 14.3754L43.3149 20.5064L46.0518 17.7695C47.0094 16.8119 47.0094 15.2595 46.0518 14.3018ZM37.9761 28.2975C37.9761 28.9756 37.428 29.5237 36.7499 29.5237H36.0314L33.579 31.9761H36.7499C37.428 31.9761 37.9761 32.5242 37.9761 33.2023C37.9761 33.8804 37.428 34.4285 36.7499 34.4285H29.6037H25.7142H18.3571C17.679 34.4285 17.1309 33.8804 17.1309 33.2023C17.1309 32.5242 17.679 31.9761 18.3571 31.9761H23.2619V29.5237H18.3571C17.679 29.5237 17.1309 28.9756 17.1309 28.2975C17.1309 27.6195 17.679 27.0714 18.3571 27.0714H23.4213C23.5905 26.4803 23.8921 25.9335 24.3397 25.4859L25.2066 24.619H18.3571C17.679 24.619 17.1309 24.0709 17.1309 23.3928C17.1309 22.7147 17.679 22.1666 18.3571 22.1666H27.659L30.1113 19.7142H18.3571C17.679 19.7142 17.1309 19.1661 17.1309 18.488C17.1309 17.81 17.679 17.2619 18.3571 17.2619H32.5637L35.0161 14.8095H18.3571C17.679 14.8095 17.1309 14.2614 17.1309 13.5833C17.1309 12.9052 17.679 12.3571 18.3571 12.3571H37.4586L39.0539 10.7717C39.7479 10.0764 40.6725 9.69384 41.6547 9.69384C42.0801 9.69384 42.4909 9.77845 42.8808 9.91701V7.45237C42.8808 6.09744 41.7834 5 40.4285 5H13.4524C12.0974 5 11 6.09744 11 7.45237V39.3332C11 40.6882 12.0974 41.7856 13.4524 41.7856H40.4285C41.7834 41.7856 42.8808 40.6882 42.8808 39.3332V22.6742L37.8216 27.7335C37.9123 27.9052 37.9761 28.0903 37.9761 28.2975Z" fill="#E50000"/>
</g>
</g>
<defs>
<filter id="filter0_d_400_350" x="7" y="5" width="43.7695" height="44.7856" filterUnits="userSpaceOnUse" color-interpolation-filters="sRGB">
<feFlood flood-opacity="0" result="BackgroundImageFix"/>
<feColorMatrix in="SourceAlpha" type="matrix" values="0 0 0 0 0 0 0 0 0 0 0 0 0 0 0 0 0 0 127 0" result="hardAlpha"/>
<feOffset dy="4"/>
<feGaussianBlur stdDeviation="2"/>
<feComposite in2="hardAlpha" operator="out"/>
<feColorMatrix type="matrix" values="0 0 0 0 0 0 0 0 0 0 0 0 0 0 0 0 0 0 0.25 0"/>
<feBlend mode="normal" in2="BackgroundImageFix" result="effect1_dropShadow_400_350"/>
<feBlend mode="normal" in="SourceGraphic" in2="effect1_dropShadow_400_350" result="shape"/>
</filter>
<clipPath id="clip0_400_350">
<rect width="45" height="45" fill="white"/>
</clipPath>
</defs>
</svg>
